<svg width="26" height="26" viewBox="0 0 26 26" fill="none" xmlns="http://www.w3.org/2000/svg">
<path d="M13 17.4272C12.8974 17.4277 12.7956 17.4076 12.7008 17.3683C12.606 17.3289 12.52 17.271 12.4479 17.198L5.15622 9.90633C5.04709 9.79707 4.9728 9.65794 4.94271 9.50648C4.91262 9.35502 4.92809 9.19804 4.98716 9.05537C5.04624 8.9127 5.14627 8.79074 5.27461 8.70488C5.40297 8.61903 5.55388 8.57313 5.7083 8.573H20.2916C20.4399 8.57864 20.5834 8.62637 20.7056 8.71062C20.8277 8.79486 20.9233 8.91213 20.9812 9.04872C21.0391 9.18529 21.0569 9.33554 21.0326 9.48188C21.0082 9.62822 20.9427 9.7646 20.8437 9.87508L13.552 17.1667C13.4826 17.2455 13.3978 17.3091 13.3029 17.3539C13.208 17.3987 13.1049 17.4236 13 17.4272ZM7.59372 10.1355L13 15.5417L18.4062 10.1355H7.59372Z" fill="black"/>
</svg>
