<svg width="80" height="80" viewBox="0 0 80 80" fill="none" xmlns="http://www.w3.org/2000/svg">
<path d="M50.8254 9.25649C50.8254 9.25649 52.7854 1.83355 48.6377 1.66916C44.4899 1.50477 39.2547 1.45419 34.7276 3.62922C30.2005 5.80425 26.6471 14.3273 26.6471 14.3273C26.6471 14.3273 18.5666 21.3077 17.2641 30.4884C16.482 35.0299 16.2148 39.6452 16.4674 44.2467C16.4674 44.2467 13.7233 50.5062 16.3662 53.1997C19.0092 55.8932 24.902 57.4234 24.902 57.4234C24.902 57.4234 31.9582 63.2403 39.7479 62.9495C44.9502 62.5852 50.0255 61.1744 54.6696 58.8017C54.6696 58.8017 63.0409 71.3208 67.1128 71.5358C71.1847 71.7508 70.3121 66.8822 70.3121 66.8822L70.388 41.5911C70.388 41.5911 70.4512 35.6983 65.216 33.4348C63.7627 32.764 62.1672 32.4594 60.5691 32.5476C58.9709 32.6357 57.4186 33.114 56.048 33.9406C56.048 33.9406 51.3185 29.8687 45.7924 31.323C42.24 32.3221 38.8742 33.8939 35.8277 35.9765C36.3636 34.2084 36.561 32.355 36.4094 30.5136C36.1186 27.681 32.7675 22.9263 35.1449 17.7796C37.5222 12.6328 40.7469 14.3653 40.7469 14.3653C41.1048 14.9002 41.5779 15.3481 42.1315 15.6764C42.6851 16.0046 43.3052 16.2047 43.9462 16.2621C45.3777 16.1503 46.7572 15.676 47.9548 14.8838C47.9548 14.8838 51.66 15.908 52.3934 13.4295C53.1268 10.951 52.659 10.1923 50.8254 9.25649Z" fill="#1478F8"/>
<path d="M67.0117 79.9957H66.6449C65.7977 79.9957 61.2073 79.0725 52.5325 66.427C47.5627 68.8027 42.1845 70.2063 36.6876 70.5621C28.4554 70.8909 21.0957 65.5039 19.6035 64.3405C18.1999 63.9485 12.6358 62.2413 9.8285 59.3834C6.62918 56.1209 8.79157 49.9372 9.47443 48.2301C9.26531 43.1788 9.57464 38.1194 10.3976 33.1313C11.7759 23.4954 19.3885 16.1104 20.9566 14.6688C21.728 12.8984 25.4457 4.81793 30.4534 2.44056C35.7139 -0.0885436 41.5435 -0.0885436 46.5512 0.139076C47.1825 0.155628 47.8017 0.317034 48.3608 0.610838C48.9199 0.904641 49.404 1.32298 49.7758 1.83358C51.3059 3.94538 50.9265 7.47349 50.5851 9.30709C52.4819 10.5716 52.8233 12.165 52.0014 14.9597C51.1794 17.7543 48.4353 18.2222 45.9315 17.7543C44.5166 18.6036 42.9137 19.0902 41.2653 19.1706C40.3964 19.1264 39.5474 18.8944 38.7768 18.4906C38.0061 18.0867 37.3322 17.5206 36.8014 16.8312C36.4076 16.7349 35.9942 16.7569 35.6128 16.8944C34.3688 17.5435 33.4191 18.6424 32.9572 19.9673C31.3386 23.4448 32.4767 26.7453 33.4883 29.6538C33.9398 30.7945 34.2621 31.9821 34.4494 33.1945C34.5487 34.208 34.5487 35.2287 34.4494 36.2421C37.1075 34.7412 39.9404 33.5732 42.8839 32.7646C48.2077 31.3609 52.8107 34.0291 54.6822 35.2937C56.3244 34.4976 58.1215 34.0725 59.9463 34.0485C61.771 34.0244 63.5787 34.4021 65.2413 35.1546C71.8549 37.9998 71.8549 45.271 71.8422 45.5239L71.7664 73.2809C71.9237 74.2037 71.8928 75.1488 71.6755 76.0593C71.4582 76.9699 71.0589 77.8271 70.5018 78.5794C70.0558 79.0521 69.5133 79.4233 68.911 79.6677C68.3088 79.9121 67.661 80.024 67.0117 79.9957ZM53.1016 62.9495C53.3512 62.9486 53.5972 63.0092 53.8178 63.1261C54.0384 63.2431 54.2267 63.4126 54.3661 63.6197C58.5897 69.9425 64.5711 76.8343 66.8725 76.9607C67.1335 77.0166 67.4043 77.0065 67.6604 76.9315C67.9165 76.8564 68.1499 76.7187 68.3394 76.5308C68.8459 75.6513 69.0166 74.618 68.82 73.6223C68.8126 73.534 68.8126 73.4451 68.82 73.3568L68.9085 45.5366C68.9085 45.3089 68.9085 40.0105 64.1411 37.9492C62.7785 37.3106 61.2803 37.0147 59.7772 37.0874C58.274 37.1602 56.8115 37.5993 55.5168 38.3665C55.239 38.5565 54.9063 38.6495 54.5702 38.6312C54.2342 38.6129 53.9135 38.4843 53.658 38.2654C53.658 38.2654 48.9538 34.3326 43.7438 35.7363C40.0131 36.7874 36.4771 38.4358 33.2733 40.6175C33.0132 40.8044 32.7006 40.9042 32.3803 40.9026C32.06 40.901 31.7484 40.7981 31.4901 40.6086C31.2319 40.4192 31.0402 40.1528 30.9426 39.8477C30.8449 39.5427 30.8463 39.2145 30.9466 38.9103C31.466 37.1693 31.659 35.3472 31.5156 33.5359C31.3404 32.5631 31.0693 31.6101 30.7063 30.6907C29.6314 27.5925 28.1772 23.331 30.289 18.7407C30.6763 17.6891 31.2774 16.7292 32.0545 15.9217C32.8315 15.1142 33.7675 14.4766 34.8034 14.0492C35.4202 13.8363 36.0732 13.7479 36.7244 13.7891C37.3756 13.8304 38.0121 14.0004 38.5971 14.2894C38.8175 14.4104 39.0043 14.5842 39.1409 14.7953C39.3975 15.172 39.7306 15.4906 40.1183 15.7302C40.5061 15.9699 40.94 16.1252 41.3918 16.1863C42.6629 16.0663 43.8841 15.6317 44.9452 14.9217C45.1285 14.7979 45.3366 14.7156 45.5551 14.6806C45.7735 14.6457 45.9969 14.6589 46.2097 14.7194C46.2097 14.7194 48.8779 15.377 49.232 14.1503C49.8011 12.2156 49.7505 12.1903 48.3089 11.4442C48.0027 11.286 47.7594 11.0282 47.6192 10.7133C47.479 10.3984 47.4502 10.0452 47.5375 9.71175C48.018 7.89079 48.3089 4.81793 47.4616 3.65454C47.3553 3.50733 47.2143 3.38871 47.051 3.30928C46.8877 3.22985 46.7073 3.19206 46.5259 3.1993C41.8976 2.95903 36.5359 3.00961 31.8823 5.20994C28.1772 6.96767 24.7502 13.733 23.7512 16.1863C23.662 16.4046 23.5235 16.5994 23.3466 16.7553C23.2581 16.8312 14.8741 24.2035 13.5336 33.5992C12.13 43.3868 12.6485 48.2933 12.6611 48.3439C12.6904 48.6065 12.6512 48.8723 12.5473 49.1153C11.8771 50.658 10.3596 55.438 12.13 57.2969C14.2797 59.4846 19.1356 61.0906 20.8175 61.5332C21.0301 61.5869 21.2286 61.6862 21.3992 61.824C21.475 61.824 28.7968 67.8559 36.7129 67.5651C42.2004 67.1641 47.5528 65.6723 52.4566 63.1771C52.6316 63.0572 52.8298 62.9754 53.0383 62.9368L53.1016 62.9495Z" fill="#1C2A34"/>
</svg>
