<svg width="26" height="26" viewBox="0 0 26 26" fill="none" xmlns="http://www.w3.org/2000/svg">
<path d="M20.2918 17.427H5.70841C5.55445 17.428 5.40371 17.3829 5.27561 17.2975C5.1475 17.2121 5.04791 17.0903 4.98966 16.9478C4.93622 16.809 4.92352 16.6578 4.95305 16.5121C4.98258 16.3663 5.0531 16.232 5.15633 16.1249L12.448 8.83322C12.5945 8.68691 12.793 8.60474 13.0001 8.60474C13.2071 8.60474 13.4057 8.68691 13.5522 8.83322L20.8438 16.1249C20.9532 16.2347 21.0275 16.3745 21.0571 16.5266C21.0868 16.6788 21.0706 16.8362 21.0105 16.9791C20.9475 17.1157 20.8458 17.2309 20.7181 17.3105C20.5904 17.3901 20.4422 17.4306 20.2918 17.427ZM7.59383 15.8645H18.4063L13.0001 10.4582L7.59383 15.8645Z" fill="black"/>
</svg>
