<svg width="50" height="50" viewBox="0 0 50 50" fill="none" xmlns="http://www.w3.org/2000/svg">
<g clip-path="url(#clip0_78_421)">
<path d="M43.706 40.4V43.682L17.4154 43.6609L21.0951 40.4H43.706ZM37.8037 6.25C39.092 6.25 39.7607 6.35 41.5162 7.82109C43.3084 9.32187 43.631 10.4922 43.706 11.7953C43.7857 13.1977 43.3123 14.9016 41.9967 16.2336L17.0271 41.2031C16.6209 41.5742 16.5357 41.5547 16.2639 41.6352L8.27479 43.6328C7.12479 43.8664 6.04511 42.8133 6.28261 41.6406L8.28026 33.6516C8.35839 33.3906 8.38417 33.2477 8.71229 32.8891C17.0685 24.532 25.2709 16.0188 33.7826 7.82109C34.8928 6.77812 36.5146 6.25 37.8037 6.25ZM12.5107 33.7359L11.3568 34.8898L10.1334 39.782L15.0256 38.5586C15.4107 38.1742 15.7951 37.7906 16.181 37.407L12.5107 33.7359ZM36.0857 17.6633L32.3342 13.9125L14.7615 31.4852L18.4428 35.1672C24.3404 29.3484 30.3146 23.6039 36.0857 17.6633ZM38.2935 15.3695C38.7764 14.8633 39.2576 14.3555 39.7373 13.8453C41.0443 12.4188 40.0834 9.58438 37.9349 9.4875C37.8912 9.48594 37.8475 9.48594 37.8037 9.48594C37.131 9.49844 36.4764 9.77656 35.9975 10.2492L34.5857 11.6617L38.2935 15.3695Z" fill="black"/>
</g>
<defs>
<clipPath id="clip0_78_421">
<rect width="50" height="50" fill="white"/>
</clipPath>
</defs>
</svg>
