<svg width="80" height="80" viewBox="0 0 80 80" fill="none" xmlns="http://www.w3.org/2000/svg">
<path d="M70.1271 48.9962H69.5129V58.146C69.4006 59.055 68.9347 59.883 68.2161 60.4507C67.4974 61.0184 66.584 61.2801 65.6738 61.1789C63.5751 61.1789 61.8347 59.8224 61.8347 58.146V27.7662C61.8347 26.0898 63.5495 24.7333 65.6738 24.7333C66.584 24.6321 67.4974 24.8937 68.2161 25.4615C68.9347 26.0292 69.4006 26.8572 69.5129 27.7662V38.2468H70.1271C73.8638 38.2468 76.8967 40.6655 76.8967 43.6471C76.8967 46.6288 73.851 49.0602 70.1271 49.0602M55.833 71.8259C55.0353 71.8276 54.2452 71.672 53.5078 71.3679C52.7704 71.0638 52.1002 70.6173 51.5356 70.0538C50.971 69.4904 50.523 68.8212 50.2174 68.0844C49.9118 67.3476 49.7545 66.5578 49.7545 65.7602V20.1776C49.7545 18.5672 50.3942 17.0227 51.5329 15.884C52.6717 14.7452 54.2162 14.1055 55.8266 14.1055C57.437 14.1055 58.9815 14.7452 60.1202 15.884C61.259 17.0227 61.8987 18.5672 61.8987 20.1776V65.709C61.9004 66.5066 61.7447 67.2968 61.4407 68.0342C61.1366 68.7716 60.6901 69.4418 60.1266 70.0064C59.5632 70.571 58.894 71.019 58.1572 71.3246C57.4204 71.6302 56.6306 71.7875 55.833 71.7875V71.8259ZM28.4476 48.9962V36.852H49.7545V48.9962H28.4476ZM22.497 71.7619C20.8883 71.7619 19.3455 71.1229 18.2079 69.9853C17.0704 68.8478 16.4313 67.3049 16.4313 65.6962V20.1776C16.4313 19.381 16.5882 18.5923 16.893 17.8563C17.1979 17.1204 17.6447 16.4517 18.2079 15.8885C18.7712 15.3252 19.4399 14.8784 20.1758 14.5736C20.9117 14.2688 21.7005 14.1119 22.497 14.1119C23.2878 14.1134 24.0703 14.2723 24.7991 14.5791C25.5278 14.8859 26.1883 15.3346 26.7421 15.8991C27.2958 16.4636 27.7318 17.1325 28.0246 17.867C28.3174 18.6016 28.4612 19.387 28.4476 20.1776V65.709C28.4629 66.5007 28.3204 67.2875 28.0283 68.0235C27.7363 68.7595 27.3006 69.43 26.7467 69.9958C26.1928 70.5617 25.5317 71.0115 24.8021 71.3191C24.0725 71.6268 23.2889 71.786 22.497 71.7875V71.7619ZM12.733 61.1405C10.6215 61.1405 8.89393 59.784 8.89393 58.1076V48.9962H8.29247C4.4534 48.9962 1.44613 46.5776 1.44613 43.5831C1.44613 40.5887 4.50459 38.1828 8.29247 38.1828H8.89393V27.7022C8.89393 26.0258 10.6215 24.6693 12.733 24.6693C13.1747 24.6234 13.6211 24.6658 14.0462 24.7938C14.4714 24.9219 14.8669 25.1331 15.2098 25.4153C15.5527 25.6974 15.8361 26.0449 16.0436 26.4375C16.2511 26.8301 16.3785 27.2599 16.4185 27.7022V58.0564C16.3866 58.5043 16.265 58.9411 16.061 59.3411C15.8571 59.7411 15.5749 60.096 15.2311 60.3848C14.8874 60.6736 14.4892 60.8905 14.06 61.0225C13.6309 61.1545 13.1796 61.199 12.733 61.1533V61.1405Z" fill="#1478F8"/>
<path d="M56.9463 69.8936C54.9099 69.8936 52.957 69.0847 51.517 67.6448C50.0771 66.2048 49.2682 64.2519 49.2682 62.2155V46.6928H30.4567V62.2539C30.4687 64.2635 29.6922 66.1978 28.294 67.6414C27.5999 68.3575 26.7683 68.926 25.8492 69.3131C24.93 69.7001 23.9422 69.8975 22.9449 69.8936C21.9366 69.8936 20.9382 69.695 20.0066 69.3092C19.0751 68.9233 18.2286 68.3577 17.5157 67.6448C16.8027 66.9318 16.2371 66.0853 15.8512 65.1538C15.4654 64.2222 15.2668 63.2238 15.2668 62.2155V58.5812C14.5359 58.8806 13.7531 59.0328 12.9633 59.0291C10.0073 59.0291 7.58864 56.9943 7.58864 54.4862V46.6289C3.34007 46.2833 7.62318e-05 43.3017 7.62939e-05 39.6929C7.63561e-05 36.0842 3.34007 33.1153 7.58864 32.7698V23.556C7.58864 20.9967 9.99446 19.0131 12.9633 19.0131C13.7584 19.0104 14.546 19.1671 15.2796 19.4738V15.8523C15.2796 13.8159 16.0885 11.863 17.5285 10.423C18.9684 8.9831 20.9214 8.17415 22.9577 8.17415C23.9551 8.16952 24.9432 8.36665 25.8624 8.7537C26.7817 9.14076 27.6131 9.70973 28.3068 10.4264C29.705 11.87 30.4815 13.8042 30.4695 15.8139V31.3749H49.281V15.8523C49.281 14.844 49.4796 13.8456 49.8654 12.914C50.2513 11.9824 50.8169 11.136 51.5298 10.423C52.2428 9.71005 53.0893 9.14448 54.0208 8.75862C54.9524 8.37275 55.9508 8.17415 56.9591 8.17415C58.9955 8.17415 60.9484 8.9831 62.3884 10.423C63.8283 11.863 64.6373 13.8159 64.6373 15.8523V19.5634C65.4045 19.2309 66.2324 19.0609 67.0687 19.0643C70.012 19.0643 72.405 21.099 72.405 23.6072V32.821C76.628 33.1665 79.9296 36.1482 79.9296 39.7441C79.9158 40.7223 79.6779 41.6842 79.2342 42.5561C78.7905 43.4279 78.1529 44.1865 77.3702 44.7733C75.9429 45.8802 74.2195 46.5393 72.4178 46.6672V54.5245C72.4178 57.0839 70.0247 59.0675 67.0815 59.0675C66.2452 59.0708 65.4174 58.9009 64.6501 58.5684V62.2539C64.6399 64.288 63.8229 66.235 62.3786 67.6674C60.9342 69.0998 58.9805 69.9004 56.9463 69.8936ZM56.9463 11.1174C55.6906 11.1174 54.4862 11.6163 53.5983 12.5042C52.7103 13.3922 52.2115 14.5965 52.2115 15.8523V62.2667C52.2115 63.5224 52.7103 64.7268 53.5983 65.6147C54.4862 66.5027 55.6906 67.0015 56.9463 67.0015C57.5681 67.0015 58.1838 66.8791 58.7583 66.6411C59.3327 66.4032 59.8547 66.0544 60.2944 65.6147C60.734 65.1751 61.0828 64.6531 61.3208 64.0786C61.5587 63.5042 61.6812 62.8885 61.6812 62.2667V15.8523C61.6812 14.5965 61.1823 13.3922 60.2944 12.5042C59.4064 11.6163 58.2021 11.1174 56.9463 11.1174ZM22.9705 11.1174C21.7148 11.1174 20.5104 11.6163 19.6225 12.5042C18.7345 13.3922 18.2357 14.5965 18.2357 15.8523V62.2667C18.2357 62.8885 18.3581 63.5042 18.5961 64.0786C18.834 64.6531 19.1828 65.1751 19.6225 65.6147C20.0621 66.0544 20.5841 66.4032 21.1586 66.6411C21.733 66.8791 22.3487 67.0015 22.9705 67.0015C23.5808 67.0064 24.1856 66.8876 24.7487 66.6523C25.3117 66.4169 25.8213 66.0699 26.2465 65.6323C27.0949 64.7197 27.554 63.5123 27.5262 62.2667V15.8523C27.554 14.6066 27.0949 13.3992 26.2465 12.4867C25.8228 12.0506 25.3153 11.7045 24.7546 11.4692C24.1939 11.2339 23.5914 11.1143 22.9833 11.1174H22.9705ZM67.0047 21.9436C66.4714 21.8765 65.9319 22.0057 65.4869 22.3071C65.0419 22.6085 64.7217 23.0615 64.5861 23.5816V54.5245C64.7219 55.0471 65.044 55.502 65.4918 55.8037C65.9396 56.1053 66.4822 56.233 67.0175 56.1626C67.5516 56.2354 68.0938 56.1085 68.5401 55.8062C68.9864 55.5039 69.3055 55.0475 69.4361 54.5245V43.6472L70.9845 43.7496H71.522C72.9501 43.7777 74.3466 43.3273 75.489 42.4699C75.9306 42.1526 76.2939 41.7386 76.5511 41.2596C76.8084 40.7806 76.9529 40.2491 76.9735 39.7057C76.9735 37.5047 74.4141 35.6491 71.522 35.6491H70.9973L69.4489 35.7515V23.5176C69.3049 23.0015 68.9764 22.5562 68.5259 22.2661C68.0754 21.976 67.5341 21.8612 67.0047 21.9436ZM10.5575 43.6216V54.5117C10.5575 55.3819 11.7092 56.1498 13.0273 56.1498C13.6635 56.173 14.288 55.9739 14.7933 55.5867C14.959 55.4596 15.0944 55.2971 15.1896 55.1112C15.2847 54.9253 15.3373 54.7205 15.3436 54.5117V23.5816C15.2467 23.0634 14.9524 22.6029 14.5227 22.2974C14.093 21.9918 13.5615 21.865 13.0401 21.9436C11.7604 21.9436 10.5703 22.7114 10.5703 23.5816V35.8283L9.02189 35.7131H8.51002C5.46436 35.7131 2.98176 37.5303 2.98176 39.7697C2.98176 42.0092 5.46436 43.8263 8.51002 43.8263H9.02189L10.5575 43.6216ZM30.4951 43.7751H49.3066V34.3054H30.4951V43.7751Z" fill="#1C2A34"/>
</svg>
