<svg width="80" height="80" viewBox="0 0 80 80" fill="none" xmlns="http://www.w3.org/2000/svg">
<g clip-path="url(#clip0_13_477)">
<path d="M71.6111 64.4121C72.8375 65.6385 55.5571 49.977 55.5571 49.977C55.5571 49.977 54.4043 49.2779 54.4043 53.9384V64.731H66.3742C68.361 64.8135 70.2383 65.6637 71.6108 67.1026C72.9833 68.5415 73.744 70.4567 73.7328 72.4452C73.7397 74.4172 72.9728 76.3132 71.5969 77.7259C70.2209 79.1385 68.3457 79.9551 66.3742 80H18.752C16.7805 79.9551 14.9053 79.1385 13.5293 77.7259C12.1534 76.3132 11.3864 74.4172 11.3934 72.4452C11.3821 70.4567 12.1429 68.5415 13.5154 67.1026C14.8879 65.6637 16.7652 64.8135 18.752 64.731H31.3106V53.9384C31.3106 49.2779 29.5813 49.977 29.5813 49.977C29.5813 49.977 12.3009 65.6385 13.5274 64.4121C5.9971 70.115 4.01028 61.0639 7.46881 57.2007C9.71318 55.1648 24.2341 43.4647 24.2341 43.4647C24.2341 43.4647 27.9134 25.9145 42.7532 25.8654C57.6175 25.8654 60.8675 43.4647 60.8675 43.4647C60.8675 43.4647 75.3885 55.1648 77.6328 57.2007C81.0914 61.0639 79.1046 70.1273 71.5743 64.4121M42.7164 22.4682C40.8894 22.4706 39.1027 21.9311 37.5824 20.9178C36.0621 19.9045 34.8765 18.463 34.1756 16.7758C33.4748 15.0885 33.2901 13.2313 33.6451 11.439C34 9.64682 34.8786 8.00015 36.1697 6.70739C37.4607 5.41462 39.1062 4.53385 40.898 4.17652C42.6897 3.81919 44.5472 4.00136 46.2354 4.69997C47.9236 5.39859 49.3666 6.58225 50.3819 8.10121C51.3972 9.62016 51.9391 11.4061 51.9391 13.2332C51.9392 15.6761 50.9712 18.0195 49.2473 19.7503C47.5233 21.4812 45.1838 22.4585 42.7409 22.4682H42.7164Z" fill="#1478F8"/>
<path d="M62.6827 78.9207H15.0604C12.7157 78.86 10.4872 77.8866 8.84941 76.2075C7.21162 74.5285 6.29384 72.2765 6.29143 69.931C6.29397 68.0513 6.86704 66.2166 7.93484 64.6696C4.79518 65.8961 2.95554 64.547 2.21968 63.7498C0.0121068 61.297 0.232864 56.4771 2.69799 53.7299L2.80837 53.6195C4.88103 51.7431 16.9 42.0297 19.2548 40.1288C20.0152 37.1608 24.369 22.7503 37.9088 21.9408V21.7814H38.7305L39.0862 21.5729L39.5522 21.8427H39.8588C53.5703 22.4069 57.7647 37.0382 58.4883 40.0552C60.8675 41.9807 72.862 51.6572 74.9224 53.5459L75.0328 53.6563C77.4857 56.4035 77.7187 61.2724 75.5111 63.6762C74.7753 64.4734 72.9356 65.8715 69.796 64.596C70.8631 66.1434 71.4361 67.9778 71.4394 69.8574C71.4563 72.2136 70.5487 74.4825 68.9115 76.177C67.2743 77.8715 65.038 78.8566 62.6827 78.9207ZM26.4539 46.0156C26.7972 46.0695 27.124 46.1994 27.4105 46.3958C28.5266 47.1562 29.054 48.7506 29.054 51.4242V63.6885H15.0604C13.4597 63.7796 11.9551 64.482 10.8573 65.6505C9.75953 66.819 9.15239 68.3645 9.16127 69.9678C9.16012 71.5546 9.77411 73.08 10.8742 74.2235C11.9743 75.3671 13.4748 76.0397 15.0604 76.1H62.6827C64.2683 76.0397 65.7688 75.3671 66.8689 74.2235C67.969 73.08 68.5829 71.5546 68.5818 69.9678C68.5877 68.3654 67.9795 66.8216 66.8824 65.6537C65.7852 64.4858 64.2823 63.7826 62.6827 63.6885H49.2655V51.4242C49.2655 48.9713 49.4985 46.5185 51.2278 46.0524C51.4997 45.9784 51.7854 45.9709 52.0608 46.0307C52.3362 46.0904 52.5932 46.2157 52.8099 46.3958C58.7581 51.7799 67.7478 59.8866 68.7535 60.7573C69.7469 61.5054 72.1752 63.1121 73.3771 61.7998C74.579 60.4875 74.4809 57.5073 72.9233 55.6676C70.5563 53.5337 56.4279 42.1769 56.2807 42.042L55.8637 41.7109L55.7656 41.1835C55.1094 38.2326 53.9787 35.4078 52.4174 32.8193C49.1674 27.5211 44.7032 24.8107 39.1352 24.7616H38.9145C25.5832 24.872 22.0388 40.5458 21.9039 41.2203L21.6586 42.3486H21.0086C18.6906 44.2128 6.90464 53.7299 4.75839 55.6676C3.20082 57.4828 3.18856 60.5734 4.30461 61.7998C5.42066 63.0262 7.9839 61.5054 8.92825 60.7573C9.86034 59.9724 17.5133 53.0799 24.8718 46.4204L25.9143 45.476L26.4539 46.0156ZM25.9879 49.3147L18.4576 56.1214L13.1349 60.9168L12.9755 61.0639C13.6558 60.8839 14.3567 60.7932 15.0604 60.7941H26.2332V51.4365C26.2338 50.7181 26.1515 50.002 25.9879 49.3025V49.3147ZM62.6827 60.7819C63.3864 60.7809 64.0873 60.8716 64.7676 61.0517L64.4855 60.7941L58.9421 55.8025L52.2212 49.6704C52.2212 50.0874 52.1476 50.6393 52.1476 51.3629V60.7205H62.6827V60.7819ZM39.0494 21.3399C36.2195 21.3399 33.5056 20.2157 31.5046 18.2147C29.5036 16.2137 28.3794 13.4998 28.3794 10.6699C28.3794 7.84009 29.5036 5.12615 31.5046 3.12515C33.5056 1.12415 36.2195 0 39.0494 0C41.8792 0 44.5931 1.12415 46.5941 3.12515C48.5951 5.12615 49.7193 7.84009 49.7193 10.6699C49.7193 13.4998 48.5951 16.2137 46.5941 18.2147C44.5931 20.2157 41.8792 21.3399 39.0494 21.3399ZM39.0494 2.86984C36.9806 2.86985 34.9967 3.69164 33.5339 5.15444C32.0711 6.61724 31.2493 8.60122 31.2493 10.6699C31.2493 12.7387 32.0711 14.7226 33.5339 16.1854C34.9967 17.6482 36.9806 18.47 39.0494 18.47C40.9779 18.282 42.7675 17.383 44.0695 15.9479C45.3715 14.5128 46.0927 12.6444 46.0927 10.7067C46.0927 8.76902 45.3715 6.90069 44.0695 5.4656C42.7675 4.03051 40.9779 3.13142 39.0494 2.94343V2.86984Z" fill="#1C2A34"/>
<path d="M46.1381 78.9821H15.2934C14.0743 79.0269 12.8587 78.8255 11.7193 78.3899C10.5798 77.9543 9.5398 77.2935 8.66149 76.4469C7.78318 75.6003 7.08456 74.5853 6.60739 73.4626C6.13021 72.3399 5.88428 71.1325 5.88428 69.9126C5.88428 68.6927 6.13021 67.4853 6.60739 66.3626C7.08456 65.2399 7.78318 64.2249 8.66149 63.3783C9.5398 62.5317 10.5798 61.8709 11.7193 61.4353C12.8587 60.9997 14.0743 60.7983 15.2934 60.8432H46.1381C47.3572 60.7983 48.5728 60.9997 49.7123 61.4353C50.8518 61.8709 51.8918 62.5317 52.7701 63.3783C53.6484 64.2249 54.347 65.2399 54.8242 66.3626C55.3013 67.4853 55.5473 68.6927 55.5473 69.9126C55.5473 71.1325 55.3013 72.3399 54.8242 73.4626C54.347 74.5853 53.6484 75.6003 52.7701 76.4469C51.8918 77.2935 50.8518 77.9543 49.7123 78.3899C48.5728 78.8255 47.3572 79.0269 46.1381 78.9821ZM15.2934 63.713C14.4793 63.713 13.6731 63.8734 12.9209 64.1849C12.1688 64.4965 11.4853 64.9531 10.9096 65.5288C10.334 66.1045 9.8773 66.788 9.56574 67.5401C9.25418 68.2923 9.09382 69.0985 9.09382 69.9126C9.09382 70.7268 9.25418 71.5329 9.56574 72.2851C9.8773 73.0373 10.334 73.7207 10.9096 74.2964C11.4853 74.8721 12.1688 75.3287 12.9209 75.6403C13.6731 75.9519 14.4793 76.1122 15.2934 76.1122H46.1381C46.9523 76.1122 47.7584 75.9519 48.5106 75.6403C49.2628 75.3287 49.9462 74.8721 50.5219 74.2964C51.0976 73.7207 51.5543 73.0373 51.8658 72.2851C52.1774 71.5329 52.3377 70.7268 52.3377 69.9126C52.3377 69.0985 52.1774 68.2923 51.8658 67.5401C51.5543 66.788 51.0976 66.1045 50.5219 65.5288C49.9462 64.9531 49.2628 64.4965 48.5106 64.1849C47.7584 63.8734 46.9523 63.713 46.1381 63.713H15.2934Z" fill="#1C2A34"/>
</g>
<defs>
<clipPath id="clip0_13_477">
<rect width="80" height="80" fill="white"/>
</clipPath>
</defs>
</svg>
