<svg width="40" height="40" viewBox="0 0 40 40" fill="none" xmlns="http://www.w3.org/2000/svg">
<path d="M13.3334 23.3333V6.66662ZM13.3334 23.3333L6.66675 23.3333V6.66662H13.3334M13.3334 23.3333L21.9927 33.4358C22.8144 34.3945 24.1071 34.8066 25.3321 34.5003L25.4112 34.4805C27.6476 33.9214 28.6549 31.3157 27.3764 29.3977L23.3334 23.3333H30.9341C33.0376 23.3333 34.6153 21.409 34.2028 19.3463L32.2027 9.34629C31.8911 7.78812 30.5231 6.66662 28.9341 6.66662H13.3334" fill="#D20303" fill-opacity="0.7"/>
<path d="M13.3334 23.3333V6.66662M13.3334 23.3333L6.66675 23.3333V6.66662H13.3334M13.3334 23.3333L21.9927 33.4358C22.8144 34.3945 24.1071 34.8066 25.3321 34.5003L25.4112 34.4805C27.6476 33.9214 28.6549 31.3157 27.3764 29.3977L23.3334 23.3333H30.9341C33.0376 23.3333 34.6153 21.409 34.2028 19.3463L32.2027 9.34629C31.8911 7.78812 30.5231 6.66662 28.9341 6.66662H13.3334" stroke="#D20303" stroke-width="2.5" stroke-linecap="round" stroke-linejoin="round"/>
</svg>
